<?xml version="1.0" encoding="utf-8"?>
<!-- Generator: Adobe Illustrator 19.2.1, SVG Export Plug-In . SVG Version: 6.00 Build 0)  -->
<svg version="1.1" id="Layer_1" xmlns="http://www.w3.org/2000/svg" xmlns:xlink="http://www.w3.org/1999/xlink" x="0px" y="0px"
	 viewBox="0 0 200 200" style="enable-background:new 0 0 200 200;" xml:space="preserve">
<style type="text/css">
	.st0{opacity:0.8;}
	.st1{fill:#FFFFFF;}
</style>
<g class="st0">
	<path class="st1" d="M22.5,120.4c10.9-1.1,21.9-2.2,32.8-3.5c6.3-0.7,12.5-1.8,18.8-1c6,0.7,12,1.7,18,2.8c3.6,0.6,5,0.3,6.1-2.7
		c1.4-3.9,2.4-7.9,3.4-11.8c1-4.5,1.9-9.1,2.6-13.6c1.3-7.8,4.8-15,8.8-22.1c3.9-6.8,7.9-13.5,11.4-20.4c1.7-3.3,2.5-6.9,3.4-10.4
		c1.8-6.8,3.4-13.6,5.1-20.4c0.9-3.5,1.8-7.1,2.7-10.6c-11.1-4.2-23.1-6.5-35.6-6.5C44.8,0.1,0.1,44.8,0.1,100
		c0,7.7,0.9,15.2,2.5,22.4C9.2,121.8,15.9,121.1,22.5,120.4z"/>
	<path class="st1" d="M163,22.5c0.3,3.7,0.4,7.4-0.8,10.9c-2.3,6.7-3.3,13.5-4.1,20.4c-0.4,3.3-1.2,6.6-3.4,9.4
		c-4.1,5.5-7.8,11.2-11,17.1c-4.7,8.9-6.2,18.4-6.8,28c0,0.7,0,1.6,0.3,2.2c2.4,5.3,6.5,9.2,13.3,10.4c3.6,0.7,6,2,7.1,5.1
		c0.5,1.2,2,2.2,3.2,3.1c1,0.7,2.4,1,3.6,1.6c2.6,1.2,4.4,3,4.8,5.8c-2.8-0.7-5.3-1.4-7.9-2c-3-0.7-5.9-0.5-8.4,1
		c-3.7,2.2-7.9,3.3-12.2,4.3c-6.4,1.5-12.9,3-19,5.1c-8,2.8-16.1,3.8-24.6,3.1c-5.4-0.4-11-0.5-16.4-0.3c-5.4,0.2-10.7,1.3-16.2,1.3
		c-2.6,0-5.3,1.2-7.9-0.4c-0.1-0.1-0.3,0-0.5,0c-3.9,0.8-7.7,1.6-11.6,2.5c-1,0-2,0-3.1,0c-0.8-0.3-1.7-0.6-2.5-0.8
		c0-0.1,0-0.3,0-0.4c0.5-0.1,0.9-0.3,1.4-0.4c4.3-1,8.7-1.6,12.8-3c4.1-1.4,8-3.4,11.8-5.4c4.4-2.3,8.5-4.8,12.8-7.2
		c0.3-0.2,0.6-0.4,0.9-0.7c-0.1-0.1-0.1-0.3-0.2-0.4c-1,0.3-2.1,0.5-3.1,0.8c-0.8,0.2-1.3,0.3-1.8-0.5c-0.2-0.3-0.9-0.5-1.4-0.6
		c-1.8-0.2-3.6-0.1-5.3-0.5c-7.9-1.6-15.8-3.3-23.7-4.8c-2.2-0.4-4.5-0.6-6.7-0.7c-3.4-0.1-6.9,0.1-10.3-0.1c-2.7-0.1-5.3-0.8-8-1
		c-3.1-0.2-6.3-0.1-9.4,0.1c-1.8,0.1-3.6,0.2-5.3,0.4c11.5,42.6,50.3,73.9,96.5,73.9c55.2,0,99.9-44.7,99.9-99.9
		C199.9,68.7,185.5,40.8,163,22.5z"/>
</g>
</svg>
